<svg version="1.1" id="Layer_1" xmlns="http://www.w3.org/2000/svg" xmlns:xlink="http://www.w3.org/1999/xlink" x="0px" y="0px" viewBox="0 0 500 500" style="width: 166px;" xml:space="preserve" data-imageid="css-79" imageName="CSS" class="illustrations_image">
<style type="text/css">
	.st0_css-79{fill:#093F68;}
	.st1_css-79{fill:#68E1FD;}
	.st2_css-79{fill:#F56132;}
	.st3_css-79{fill:#FFBC0E;}
	.st4_css-79{fill:#70CC40;}
	.st5_css-79{fill:#FFFFFF;}
</style>
<g id="screen_css-79">
	<path class="st0_css-79" d="M59.5,119.8h403.7c6.4,0,11.6,5.2,11.6,11.6v239c0,6.4-5.2,11.6-11.6,11.6H59.5c-6.4,0-11.6-5.2-11.6-11.6&#10;&#9;&#9;v-239C47.9,125,53.1,119.8,59.5,119.8z"/>
	<path class="st0_css-79" d="M463.7,383.9H59c-7.2,0-13-5.8-13-13l0,0v-240c0-7.2,5.8-13,13-13h404.7c7.2,0,13,5.8,13,13v240&#10;&#9;&#9;C476.7,378,470.9,383.9,463.7,383.9L463.7,383.9z M59,121.7c-5.1,0-9.2,4.1-9.2,9.2v240c0,5,4.1,9.1,9.2,9.1h404.7&#10;&#9;&#9;c5.1,0,9.2-4.1,9.2-9.1v-240c0-5.1-4.1-9.2-9.2-9.2L59,121.7z"/>
	<path class="st1_css-79 targetColor" d="M47.9,159.7h204.3l0,0V382l0,0H59.8c-6.6,0-11.9-5.3-11.9-11.9V159.7L47.9,159.7z" style="fill: rgb(104, 225, 253);"/>
	<path class="st0_css-79" d="M252.2,383.9H59.5c-7.5,0-13.5-6-13.5-13.5V159.7c0-1.1,0.9-1.9,1.9-1.9h204.3c1.1,0,1.9,0.9,1.9,1.9V382&#10;&#9;&#9;C254.1,383,253.2,383.9,252.2,383.9z M49.8,161.6v208.7c0,5.3,4.4,9.6,9.7,9.6h190.8V161.6H49.8z"/>
	<circle class="st2_css-79" cx="76.8" cy="141.1" r="6.7"/>
	<path class="st0_css-79" d="M76.8,149.7c-4.8,0-8.7-3.9-8.7-8.7c0-4.8,3.9-8.6,8.7-8.6c4.8,0,8.7,3.9,8.7,8.7l0,0&#10;&#9;&#9;C85.5,145.8,81.6,149.7,76.8,149.7z M76.8,136.2c-2.7,0-4.8,2.2-4.8,4.8c0,2.7,2.2,4.8,4.8,4.8s4.8-2.2,4.8-4.8&#10;&#9;&#9;C81.6,138.4,79.5,136.2,76.8,136.2L76.8,136.2z"/>
	<circle class="st3_css-79" cx="104" cy="141.1" r="6.7"/>
	<path class="st0_css-79" d="M104,149.7c-4.8,0-8.7-3.9-8.7-8.7c0-4.8,3.9-8.6,8.7-8.6c4.8,0,8.7,3.9,8.7,8.7l0,0&#10;&#9;&#9;C112.6,145.8,108.8,149.7,104,149.7z M104,136.2c-2.7,0-4.8,2.2-4.8,4.8c0,2.7,2.2,4.8,4.8,4.8s4.8-2.2,4.8-4.8&#10;&#9;&#9;C108.8,138.4,106.7,136.2,104,136.2L104,136.2z"/>
	<circle class="st4_css-79" cx="131.2" cy="141.1" r="6.7"/>
	<path class="st0_css-79" d="M131.2,149.7c-4.8,0-8.7-3.9-8.7-8.6c0-4.8,3.9-8.7,8.6-8.7c4.8,0,8.7,3.9,8.7,8.6v0&#10;&#9;&#9;C139.9,145.8,136,149.7,131.2,149.7z M131.2,136.2c-2.7,0-4.8,2.2-4.8,4.8c0,2.7,2.2,4.8,4.8,4.8c2.7,0,4.8-2.2,4.8-4.8&#10;&#9;&#9;C136,138.4,133.9,136.2,131.2,136.2z"/>
</g>
<g id="coding_css-79">
	<path class="st5_css-79" d="M314.5,182.7h-36.3c-1.1-0.1-1.9-1-1.8-2.1c0.1-1,0.8-1.7,1.8-1.8h36.3c1.1-0.1,2,0.7,2.1,1.8&#10;&#9;&#9;c0.1,1.1-0.7,2-1.8,2.1C314.7,182.7,314.6,182.7,314.5,182.7L314.5,182.7z"/>
	<path class="st3_css-79" d="M364.6,205.4h-74.5c-1.1,0.1-2-0.7-2.1-1.8c-0.1-1.1,0.7-2,1.8-2.1c0.1,0,0.2,0,0.3,0h74.5&#10;&#9;&#9;c1.1,0.1,1.9,1,1.8,2.1C366.3,204.6,365.6,205.3,364.6,205.4L364.6,205.4z"/>
	<path class="st3_css-79" d="M346.1,228.1h-56c-1.1,0.1-2-0.7-2.1-1.8c-0.1-1.1,0.7-2,1.8-2.1c0.1,0,0.2,0,0.3,0h56c1.1,0.1,1.9,1,1.8,2.1&#10;&#9;&#9;C347.8,227.3,347.1,228,346.1,228.1z"/>
	<path class="st5_css-79" d="M316.6,250.8h-32.1c-1.1,0.1-2-0.7-2.1-1.8c-0.1-1.1,0.7-2,1.8-2.1c0.1,0,0.2,0,0.3,0h32.1&#10;&#9;&#9;c1.1,0.1,1.9,1,1.8,2.1C318.3,249.9,317.5,250.7,316.6,250.8z"/>
	<path class="st2_css-79" d="M329.4,273.5h-36.3c-1.1,0.1-2-0.7-2.1-1.8s0.7-2,1.8-2.1c0.1,0,0.2,0,0.3,0h36.3c1.1,0.1,1.9,1,1.8,2.1&#10;&#9;&#9;C331.1,272.6,330.3,273.4,329.4,273.5L329.4,273.5z"/>
	<path class="st5_css-79" d="M347.9,296.1h-56c-1.1-0.1-1.9-1-1.8-2.1c0.1-1,0.8-1.7,1.8-1.8h56c1.1,0.1,1.9,1,1.8,2.1&#10;&#9;&#9;C349.6,295.3,348.8,296.1,347.9,296.1z"/>
	<path class="st5_css-79" d="M305.4,318.8h-27.2c-1.1-0.1-1.9-1-1.8-2.1c0.1-1,0.8-1.7,1.8-1.8h27.2c1.1-0.1,2,0.7,2.1,1.8s-0.7,2-1.8,2.1&#10;&#9;&#9;C305.6,318.8,305.5,318.8,305.4,318.8z"/>
	<path class="st4_css-79" d="M347.9,341.5h-59.6c-1.1,0.1-2-0.7-2.1-1.8s0.7-2,1.8-2.1c0.1,0,0.2,0,0.3,0h59.6c1.1,0.1,1.9,1,1.8,2.1&#10;&#9;&#9;C349.6,340.7,348.8,341.4,347.9,341.5z"/>
	<path class="st3_css-79" d="M405,341.5h-39.2c-1.1,0.1-2-0.7-2.1-1.8s0.7-2,1.8-2.1c0.1,0,0.2,0,0.3,0H405c1.1,0.1,1.9,1,1.8,2.1&#10;&#9;&#9;C406.7,340.7,406,341.4,405,341.5z"/>
	<path class="st5_css-79" d="M392.3,228.1h-27.7c-1.1,0.1-2-0.7-2.1-1.8c-0.1-1.1,0.7-2,1.8-2.1c0.1,0,0.2,0,0.3,0h27.6&#10;&#9;&#9;c1.1,0.1,1.9,1,1.8,2.1C394,227.3,393.2,228,392.3,228.1L392.3,228.1z"/>
	<path class="st1_css-79 targetColor" d="M431.7,205.4h-53.2c-1.1-0.1-1.9-1-1.8-2.1c0.1-1,0.8-1.7,1.8-1.8h53.2c1.1,0.1,1.9,1,1.8,2.1&#10;&#9;&#9;C433.4,204.6,432.6,205.3,431.7,205.4z" style="fill: rgb(104, 225, 253);"/>
	<path class="st2_css-79" d="M422.9,228.1h-15.6c-1.1-0.1-1.9-1-1.8-2.1c0.1-1,0.8-1.7,1.8-1.8h15.6c1.1,0.1,1.9,1,1.8,2.1&#10;&#9;&#9;C424.6,227.3,423.8,228,422.9,228.1z"/>
	<path class="st2_css-79" d="M355.6,273.5h-15.5c-1.1,0.1-2-0.7-2.1-1.8s0.7-2,1.8-2.1c0.1,0,0.2,0,0.3,0h15.5c1.1-0.1,2,0.7,2.1,1.8&#10;&#9;&#9;s-0.7,2-1.8,2.1C355.8,273.5,355.7,273.5,355.6,273.5z"/>
	<path class="st3_css-79" d="M431.7,273.5h-63.2c-1.1,0.1-2-0.7-2.1-1.8s0.7-2,1.8-2.1c0.1,0,0.2,0,0.3,0h63.2c1.1,0.1,1.9,1,1.8,2.1&#10;&#9;&#9;C433.4,272.6,432.6,273.4,431.7,273.5z"/>
	<path class="st1_css-79 targetColor" d="M378.4,296.1h-13.8c-1.1,0.1-2-0.7-2.1-1.8s0.7-2,1.8-2.1c0.1,0,0.2,0,0.3,0h13.8c1.1-0.1,2,0.7,2.1,1.8&#10;&#9;&#9;s-0.7,2-1.8,2.1C378.6,296.1,378.5,296.1,378.4,296.1z" style="fill: rgb(104, 225, 253);"/>
	<path class="st5_css-79" d="M431.7,341.5h-8.8c-1.1,0.1-2-0.7-2.1-1.8s0.7-2,1.8-2.1c0.1,0,0.2,0,0.3,0h8.8c1.1,0.1,1.9,1,1.8,2.1&#10;&#9;&#9;C433.4,340.7,432.6,341.4,431.7,341.5z"/>
	<path class="st0_css-79" d="M111,347.5c-1.6-1.4-2.3-3.5-2.3-6.2v-13.8c0-1.7-0.3-2.9-1-3.5s-1.9-0.9-3.7-0.9v-6.7c1.8,0,3.1-0.3,3.7-0.9&#10;&#9;&#9;s1-1.8,1-3.5v-13.8c0-2.7,0.8-4.8,2.3-6.2c1.7-1.4,3.8-2.2,6-2.1h4.2v6.7H120c-1.1-0.1-2.2,0.3-3,1.1c-0.7,0.8-1,2.2-1,4.1v11.2&#10;&#9;&#9;c0,3.5-1.5,5.7-4.6,6.6v0.1c3,0.9,4.6,3.1,4.6,6.6v11.2c0,2,0.3,3.4,1,4.1c0.8,0.8,1.9,1.3,3,1.2h1.2v6.7H117&#10;&#9;&#9;C114.8,349.7,112.7,349,111,347.5z"/>
	<path class="st0_css-79" d="M156.3,293.5h7.1l-20.6,52.3h-7.1L156.3,293.5z"/>
	<path class="st0_css-79" d="M177.9,342.9h1.2c1.1,0.1,2.2-0.3,3-1.2c0.6-0.8,1-2.1,1-4.1v-11.2c0-3.5,1.5-5.7,4.6-6.6v-0.1&#10;&#9;&#9;c-3-0.9-4.6-3.1-4.6-6.6v-11.2c0-2-0.3-3.4-1-4.1c-0.8-0.8-1.9-1.2-3-1.1h-1.2v-6.7h4.2c2.2-0.1,4.3,0.7,6,2.1&#10;&#9;&#9;c1.5,1.4,2.3,3.5,2.3,6.2v13.8c0,1.8,0.3,2.9,1,3.5s1.9,0.9,3.7,0.9v6.7c-1.9,0-3.1,0.3-3.7,0.9s-1,1.8-1,3.5v13.8&#10;&#9;&#9;c0,2.7-0.8,4.8-2.3,6.2c-1.7,1.4-3.8,2.2-6,2.1h-4.2V342.9z"/>
</g>
<g id="css_css-79">
	<path class="st5_css-79" d="M33.7,176.1h154.1c4.7,0,8.5,3.8,8.5,8.5v75.2c0,4.7-3.8,8.5-8.5,8.5H33.7c-4.7,0-8.5-3.8-8.5-8.5v-75.2&#10;&#9;&#9;C25.2,179.9,29,176.1,33.7,176.1z"/>
	<path class="st0_css-79" d="M187.8,270.3H33.7c-5.7,0-10.4-4.7-10.4-10.4v-75.2c0-5.8,4.7-10.4,10.4-10.4h154.1c5.8,0,10.4,4.7,10.4,10.4&#10;&#9;&#9;v75.2C198.2,265.6,193.6,270.2,187.8,270.3z M33.7,178c-3.6,0-6.6,3-6.6,6.6v75.2c0,3.6,2.9,6.6,6.6,6.6h154.1&#10;&#9;&#9;c3.6,0,6.6-2.9,6.6-6.6v-75.2c0-3.6-2.9-6.6-6.6-6.6L33.7,178z"/>
	<path class="st0_css-79" d="M87.2,216.1c-0.9-1.1-2.1-2-3.4-2.6c-1.5-0.6-3-0.9-4.6-0.9c-3.3,0-6.5,1.4-8.7,3.8c-1.1,1.3-2,2.7-2.6,4.3&#10;&#9;&#9;c-1.2,3.5-1.2,7.3,0,10.9c0.6,1.6,1.4,3,2.5,4.3c1,1.2,2.3,2.2,3.8,2.8c1.5,0.7,3.1,1,4.7,1c1.7,0,3.5-0.4,5-1.2&#10;&#9;&#9;c1.5-0.8,2.7-1.9,3.6-3.3l7.8,5.8c-1.7,2.4-4.1,4.4-6.8,5.5c-2.7,1.2-5.5,1.8-8.4,1.8c-3.1,0-6.2-0.5-9.1-1.5&#10;&#9;&#9;c-2.7-1-5.1-2.5-7.2-4.4c-2.1-2-3.7-4.4-4.7-7c-2.3-5.9-2.3-12.4,0-18.3c1.1-2.6,2.7-5,4.7-7c2.1-2,4.5-3.5,7.2-4.4&#10;&#9;&#9;c2.9-1.1,6-1.6,9.1-1.5c1.2,0,2.5,0.1,3.7,0.3c1.3,0.2,2.6,0.5,3.8,1c1.3,0.5,2.5,1.1,3.6,1.9c1.2,0.8,2.2,1.8,3.1,2.9L87.2,216.1z&#10;&#9;&#9;"/>
	<path class="st0_css-79" d="M121.3,215.4c-0.8-1-1.9-1.7-3.1-2.1c-1.2-0.4-2.4-0.7-3.7-0.7c-0.7,0-1.4,0.1-2.1,0.2c-0.7,0.2-1.4,0.4-2,0.8&#10;&#9;&#9;c-0.6,0.3-1.1,0.8-1.6,1.3c-0.4,0.6-0.6,1.3-0.6,2c-0.1,1.2,0.5,2.3,1.4,2.9c1.1,0.8,2.3,1.3,3.6,1.7c1.4,0.5,3,1,4.7,1.4&#10;&#9;&#9;c1.6,0.5,3.2,1.1,4.7,2c1.5,0.9,2.7,2.1,3.6,3.5c1,1.8,1.5,3.8,1.4,5.9c0,2.1-0.4,4.2-1.3,6.1c-0.8,1.7-2.1,3.2-3.5,4.3&#10;&#9;&#9;c-1.5,1.2-3.3,2-5.2,2.6c-2,0.6-4.1,0.8-6.2,0.8c-2.6,0-5.2-0.4-7.6-1.2c-2.4-0.9-4.7-2.2-6.6-4l6.6-7.3c0.9,1.3,2.2,2.3,3.6,2.9&#10;&#9;&#9;c2.1,1,4.5,1.3,6.8,0.8c0.7-0.2,1.4-0.4,2.1-0.8c0.6-0.3,1.1-0.8,1.5-1.4c0.4-0.6,0.6-1.3,0.6-2c0-1.2-0.5-2.3-1.4-3&#10;&#9;&#9;c-1.1-0.8-2.4-1.4-3.7-1.9c-1.5-0.5-3.1-1-4.8-1.5c-1.7-0.5-3.3-1.2-4.8-2.1c-1.5-0.9-2.7-2-3.7-3.4c-1-1.7-1.6-3.7-1.5-5.6&#10;&#9;&#9;c0-2.1,0.4-4.1,1.3-5.9c0.9-1.7,2.1-3.1,3.6-4.3c1.5-1.2,3.3-2.1,5.2-2.6c1.9-0.6,4-0.9,6-0.9c2.3,0,4.7,0.3,6.9,1&#10;&#9;&#9;c2.2,0.7,4.3,1.8,6,3.4L121.3,215.4z"/>
	<path class="st0_css-79" d="M155.4,215.4c-0.8-1-1.9-1.7-3.1-2.1c-1.2-0.4-2.4-0.7-3.7-0.7c-0.7,0-1.4,0.1-2.1,0.2c-0.7,0.2-1.4,0.4-2,0.8&#10;&#9;&#9;c-0.6,0.3-1.1,0.8-1.5,1.3c-0.4,0.6-0.6,1.3-0.6,2c-0.1,1.2,0.5,2.3,1.4,2.9c1.1,0.8,2.3,1.3,3.6,1.7c1.4,0.5,3,1,4.7,1.4&#10;&#9;&#9;c1.6,0.5,3.2,1.1,4.7,2c1.5,0.9,2.7,2.1,3.6,3.5c1,1.8,1.5,3.8,1.4,5.9c0,2.1-0.4,4.2-1.3,6.1c-0.8,1.7-2.1,3.2-3.5,4.3&#10;&#9;&#9;c-1.5,1.2-3.3,2-5.2,2.6c-2,0.6-4.1,0.8-6.2,0.8c-2.6,0-5.2-0.4-7.6-1.2c-2.4-0.9-4.7-2.2-6.6-4l6.6-7.3c0.9,1.3,2.2,2.3,3.6,2.9&#10;&#9;&#9;c2.1,1,4.5,1.3,6.8,0.8c0.7-0.2,1.4-0.4,2.1-0.8c0.6-0.3,1.1-0.8,1.5-1.4c0.4-0.6,0.6-1.3,0.6-2c0-1.2-0.5-2.3-1.4-3&#10;&#9;&#9;c-1.1-0.8-2.4-1.4-3.7-1.9c-1.5-0.5-3.1-1-4.8-1.5c-1.7-0.5-3.3-1.2-4.8-2.1c-1.5-0.9-2.7-2-3.7-3.4c-1-1.7-1.6-3.7-1.5-5.6&#10;&#9;&#9;c0-2.1,0.4-4.1,1.3-5.9c0.9-1.7,2.1-3.1,3.6-4.3c1.5-1.2,3.3-2.1,5.1-2.6c1.9-0.6,4-0.9,6-0.9c2.3,0,4.7,0.3,6.9,1&#10;&#9;&#9;c2.2,0.7,4.3,1.8,6,3.4L155.4,215.4z"/>
	<path class="st0_css-79" d="M194.3,192.6H25.2c-1.1,0.1-2-0.7-2.1-1.8c-0.1-1.1,0.7-2,1.8-2.1c0.1,0,0.2,0,0.3,0h169.1&#10;&#9;&#9;c1.1-0.1,2,0.7,2.1,1.8c0.1,1.1-0.7,2-1.8,2.1C194.5,192.6,194.4,192.6,194.3,192.6z"/>
</g>
</svg>